<svg width="46" height="46" viewBox="0 0 46 46" fill="none" xmlns="http://www.w3.org/2000/svg">
<g opacity="0.6">
<path d="M23 25.875C21.5785 25.875 20.1888 25.4535 19.0068 24.6637C17.8249 23.8739 16.9036 22.7514 16.3596 21.438C15.8156 20.1247 15.6733 18.6795 15.9506 17.2853C16.2279 15.8911 16.9125 14.6104 17.9177 13.6052C18.9229 12.6 20.2036 11.9154 21.5978 11.6381C22.992 11.3608 24.4372 11.5031 25.7505 12.0471C27.0639 12.5911 28.1864 13.5124 28.9762 14.6943C29.766 15.8763 30.1875 17.266 30.1875 18.6875C30.1852 20.593 29.4272 22.4199 28.0798 23.7673C26.7324 25.1147 24.9055 25.8727 23 25.875ZM23 14.375C22.1471 14.375 21.3133 14.6279 20.6041 15.1018C19.8949 15.5757 19.3422 16.2492 19.0158 17.0372C18.6894 17.8252 18.604 18.6923 18.7704 19.5288C18.9368 20.3654 19.3475 21.1338 19.9506 21.7369C20.5537 22.34 21.3221 22.7507 22.1587 22.9171C22.9952 23.0835 23.8623 22.9981 24.6503 22.6717C25.4383 22.3453 26.1119 21.7926 26.5857 21.0834C27.0596 20.3742 27.3125 19.5404 27.3125 18.6875C27.3114 17.5441 26.8566 16.4479 26.0481 15.6394C25.2396 14.8309 24.1434 14.3761 23 14.375Z" fill="white"/>
<path d="M23 43.125L10.8733 28.8233C10.7048 28.6086 10.538 28.3925 10.373 28.175C8.30155 25.4463 7.1825 22.1134 7.18752 18.6875C7.18752 14.4938 8.85347 10.4718 11.8189 7.50637C14.7843 4.54096 18.8063 2.875 23 2.875C27.1937 2.875 31.2157 4.54096 34.1811 7.50637C37.1466 10.4718 38.8125 14.4938 38.8125 18.6875C38.8175 22.1118 37.699 25.4432 35.6284 28.1707L35.627 28.175C35.627 28.175 35.1958 28.7414 35.1311 28.8176L23 43.125ZM12.6687 26.4428C12.6687 26.4428 13.0036 26.8856 13.0798 26.9804L23 38.6803L32.9331 26.9646C32.9964 26.8856 33.3328 26.4399 33.3342 26.4385C35.0263 24.2091 35.9408 21.4864 35.9375 18.6875C35.9375 15.2563 34.5745 11.9656 32.1482 9.53931C29.722 7.11305 26.4312 5.75 23 5.75C19.5688 5.75 16.2781 7.11305 13.8518 9.53931C11.4256 11.9656 10.0625 15.2563 10.0625 18.6875C10.0595 21.4881 10.975 24.2124 12.6687 26.4428Z" fill="white"/>
</g>
</svg>
