<svg width="48" height="48" viewBox="0 0 48 48" fill="none" xmlns="http://www.w3.org/2000/svg">
<rect width="48" height="48" rx="7" fill="white"/>
<path d="M44.73 39.27L33.69 29.64C35.3758 27.1972 36.2759 24.298 36.27 21.33C36.0904 17.1176 34.2575 13.1459 31.1687 10.2761C28.0799 7.40628 23.9842 5.86986 19.77 6.00001C15.538 5.87842 11.4293 7.4339 8.33888 10.3277C5.24843 13.2215 3.42655 17.2191 3.27002 21.45C3.41876 25.6836 5.23828 29.6859 8.33048 32.5813C11.4227 35.4767 15.5358 37.0295 19.77 36.9C23.9919 36.9214 28.0729 35.383 31.23 32.58L42.24 42L44.73 39.27ZM19.77 33C16.5301 33.1302 13.3704 31.9727 10.9813 29.7804C8.59219 27.588 7.16804 24.5392 7.02002 21.3C7.16804 18.0609 8.59219 15.012 10.9813 12.8196C13.3704 10.6273 16.5301 9.46979 19.77 9.60001C23.0099 9.46979 26.1697 10.6273 28.5588 12.8196C30.9479 15.012 32.372 18.0609 32.52 21.3C32.3798 24.5419 30.958 27.5955 28.5671 29.7895C26.1763 31.9834 23.012 33.1382 19.77 33Z" fill="black"/>
</svg>
